<svg xmlns="http://www.w3.org/2000/svg" width="139.08" height="78.207">
<defs>
<linearGradient id="gL2" x1="0" x2="1"><stop offset="0" stop-color="#29ABE2"/><stop offset="1" stop-color="#29ABE2" stop-opacity="0"/></linearGradient>
</defs>
<path d="M300.31 168.797c0 2.5-2.5 2.5-2.5 2.5l-2.434-.002-3.669.282c-4.876-.074-9.753-.42-13.424-4.158-1.026-1.044-1.505-2.513-2.268-3.763-.161-.263-.346-.514-.528-.767-.14 2.94-2.243 7.419-2.848 9.224-.81 2.415-2.139 4.623-3.17 6.95-2.367 5.345-2.877 10.539-6.45 15.368-.74 1-1.124 2.362-2.17 3.033-6.17 3.957-8.394-.322-10.179-5.406-1.089-13.334-2.508-26.761-2.86-40.12-.085-3.253.09-6.51.001-9.764-.01-.34-.135-1.203-.21-2.172-.281 1.521-.653 3.024-.964 4.54-.665 3.243-1.231 6.506-1.81 9.766-.753 4.237-1.435 8.446-1.957 12.718-.512 4.188-.803 8.397-1.438 12.565-.719 4.72-1.595 10.98-4.173 15.254-1.208 2.003-3.029 4.572-5.368 4.521-1.867-.04-2.155-3.061-3.044-4.704-.746-1.377-2.175-7.07-2.333-7.701-4.179-16.726-.012-34.411-4.38-50.956-.218-.506-.865-2.164-.948-1.996-.78 1.579-1.369 3.501-1.916 5.175-2.411 7.375-3.188 13.705-3.852 21.407-.704 8.162-2.092 16.124-3.69 24.146-1.006 5.045-3.1 16.218-3.117 16.258l.014.004-1.44 4.73a2.501 2.501 0 0 1-4.668.395l-1.15-2.306c-5.321-13.809-4.251-30.531-3.755-45.124.087-2.558.001-5.184.004-7.804a189.757 189.757 0 0 0-4.204 12.963c-1.167 4.083-2.271 10.22-5.582 13.333-3.438 3.232-5.285 4.894-9.18 1.619-1.183-.995-1.616-2.539-2.304-3.924-.439-.883-1.205-3.41-1.391-3.316-1.168.59-1.375 2.226-2.067 3.336-2.488 3.99-4.905 8.127-6.88 12.38 0 0-1.058 2.265-3.324 1.208-2.265-1.058-1.208-3.323-1.208-3.323 1.704-3.637 3.763-6.788 5.702-10.275.914-1.645 2.408-4.54 3.706-5.806 1.039-1.013 2.117-2.46 3.568-2.494 5.147-.124 4.583 3.067 6.162 6.19.374.817 1.56 2.902 1.735 2.801 1.968-.124 3.274-4.257 4.143-6.157 2.975-6.51 4.115-13.992 6.61-20.73.64-2.397 1.284-4.792 1.937-7.185l.542-2.438a2.5 2.5 0 0 1 4.68-.637l1.541 3.016c.056.105.45 2.33.461 2.413.255 1.713.504 3.05.517 4.918.031 4.447-.222 8.87-.281 13.312-.15 11.145-1.013 23.648 1.84 34.704.254-1.743.71-3.492 1.074-5.42.79-4.185 1.563-8.353 2.426-12.525 2.502-12.083 1.74-24.822 5.623-36.568 1.652-4.998 3.153-16.768 11.152-11.693 1.167.74 1.437 2.36 2.156 3.54 3.686 13.716 1.24 28.138 2.826 42.118.546 4.814 1.635 9.544 3.038 14.178.133.438.36.853.555 1.275.46-1.17 1.15-2.253 1.536-3.45 2.227-6.913 2.308-14.685 3.182-21.834 1.124-9.187 2.288-18.967 4.886-27.871 1.03-3.526 1.704-8.992 7.783-5.837 1.433.743 1.537 2.878 1.914 4.448.423 1.765.32 7.932.32 9.715 0 14.734 1.711 29.491 2.761 44.195.317 1.046-.005 3.1 1.089 3.094 1.208-.008 1.949-2.15 2.302-2.656 1.055-1.51 2.137-3.047 2.785-4.77 1.186-3.158 1.782-6.568 3.132-9.656 1.792-4.098 3.413-7.755 4.674-12.078.418-1.435 2.186-8.398 3.371-8.899 5.145-2.172 6.974 5.648 8.999 7.887 2.393 2.647 6.394 2.561 9.623 2.588l3.639-.28 2.625-.002s2.5 0 2.5 2.5z" transform="translate(-161.23 -129.348)" data-paper-data="{&quot;isPaintingLayer&quot;:true}" fill="url(#gL2)" stroke-width=".5" stroke-miterlimit="10" style="mix-blend-mode:normal"/></svg>